<?xml version="1.0" standalone="no"?>
<!DOCTYPE svg PUBLIC "-//W3C//DTD SVG 20010904//EN"
 "http://www.w3.org/TR/2001/REC-SVG-20010904/DTD/svg10.dtd">
<svg version="1.0" xmlns="http://www.w3.org/2000/svg"
 width="336.000000pt" height="336.000000pt" viewBox="0 0 336.000000 336.000000"
 preserveAspectRatio="xMidYMid meet">
<metadata>
Created by potrace 1.11, written by Peter Selinger 2001-2013
</metadata>
<g transform="translate(0.000000,336.000000) scale(0.100000,-0.100000)"
fill="#000000" stroke="none">
<path d="M1332 3337 c-6 -6 -13 -24 -17 -38 -4 -15 -17 -31 -29 -37 -17 -8
-31 -36 -60 -128 -53 -166 -115 -295 -169 -348 -134 -135 -340 -185 -620 -151
-94 11 -126 6 -128 -22 -2 -24 -2 -25 6 -46 6 -14 3 -16 -16 -13 -26 4 -59
-19 -59 -41 0 -8 27 -62 59 -121 134 -242 185 -433 157 -582 -27 -143 -92
-224 -291 -359 -53 -36 -71 -54 -73 -74 -2 -15 -11 -29 -22 -32 -40 -13 -59
-64 -32 -88 9 -8 40 -19 67 -26 88 -21 238 -72 300 -104 198 -99 289 -214 330
-417 14 -66 14 -316 0 -411 -6 -41 -4 -49 15 -62 27 -19 42 -14 142 46 119 73
229 125 297 143 212 54 478 -80 744 -374 54 -60 96 -56 112 9 4 15 17 31 30
37 18 8 28 27 40 69 34 123 88 271 127 346 66 127 177 206 328 235 80 16 285
6 397 -19 23 -5 49 -6 58 -3 25 10 37 41 25 64 -10 18 -8 20 18 20 32 0 52 16
52 43 0 10 -24 67 -54 125 -71 141 -79 162 -111 262 -68 216 -33 423 94 543
44 42 179 150 207 165 7 4 15 18 17 30 2 12 19 35 38 51 30 26 33 31 24 56 -6
17 -20 31 -35 36 -472 139 -645 271 -694 526 -16 85 -12 229 9 338 21 109 20
123 -9 137 -22 9 -37 4 -123 -44 -338 -190 -545 -211 -753 -77 -77 50 -215
187 -284 282 -40 54 -55 67 -77 67 -14 0 -31 -6 -37 -13z m185 -284 c67 -67
146 -126 225 -169 68 -36 73 -43 12 -18 -70 29 -168 101 -239 176 -87 91 -125
136 -125 145 0 5 17 -12 38 -37 20 -24 60 -68 89 -97z m54 -192 c71 -52 187
-105 264 -121 137 -28 326 10 519 107 49 24 90 42 93 39 2 -2 0 -26 -4 -52
-10 -55 -9 -218 1 -279 23 -140 100 -272 213 -365 77 -64 226 -142 363 -190
l65 -23 -61 -63 c-75 -78 -179 -222 -210 -291 -75 -168 -73 -345 8 -572 17
-47 35 -92 41 -98 7 -10 -9 -13 -74 -12 -195 3 -336 -42 -455 -145 -57 -49
-186 -220 -233 -308 -21 -40 -51 -105 -67 -145 l-27 -71 -31 31 c-234 239
-520 358 -741 308 -49 -12 -241 -101 -300 -140 l-30 -20 2 142 c1 78 -2 162
-7 187 -4 25 -10 59 -13 75 -8 49 -48 147 -82 200 -85 133 -223 230 -435 305
-36 13 -66 24 -68 26 -2 1 21 26 51 57 56 56 156 184 194 247 12 19 34 71 49
115 55 161 25 381 -78 588 -11 22 -17 41 -15 43 3 3 47 7 99 9 257 12 414 103
581 335 64 88 157 261 157 291 0 7 39 -28 88 -78 48 -50 112 -109 143 -132z
m1114 -546 c79 -78 192 -147 322 -197 46 -17 81 -33 79 -35 -5 -6 -166 56
-221 85 -127 67 -228 155 -268 232 -15 30 -15 32 -1 10 10 -14 49 -56 89 -95z
m440 -245 c3 -6 -1 -7 -9 -4 -18 7 -21 14 -7 14 6 0 13 -4 16 -10z m40 -10 c3
-5 1 -10 -4 -10 -6 0 -11 5 -11 10 0 6 2 10 4 10 3 0 8 -4 11 -10z m-2764
-814 c126 -50 250 -136 301 -209 15 -22 4 -15 -33 22 -86 84 -208 160 -316
195 -29 10 -53 20 -53 22 0 7 32 -3 101 -30z m1056 -732 c-3 -3 -12 -4 -19 -1
-8 3 -5 6 6 6 11 1 17 -2 13 -5z m146 -54 c45 -22 109 -61 142 -85 73 -55 225
-195 225 -208 0 -5 -38 27 -86 72 -104 99 -191 162 -302 218 -46 24 -78 43
-72 43 6 0 48 -18 93 -40z"/>
<path d="M1254 2239 c-105 -13 -172 -58 -259 -174 -60 -79 -85 -137 -85 -194
0 -42 14 -61 46 -61 27 0 57 27 48 42 -4 6 7 23 24 37 23 19 33 37 37 65 5 47
17 61 69 89 30 15 60 21 111 21 59 1 78 -4 123 -28 56 -31 111 -101 113 -143
2 -27 2 -31 13 -60 5 -16 15 -23 35 -23 35 0 51 17 51 53 0 15 4 26 8 23 5 -3
18 2 30 10 49 34 14 162 -65 242 -80 81 -183 116 -299 101z"/>
<path d="M2008 2234 c-63 -16 -144 -62 -174 -98 -110 -138 -126 -166 -139
-243 -9 -55 7 -83 45 -83 31 0 50 22 50 60 0 12 4 19 9 16 17 -11 40 21 53 73
12 50 17 57 59 79 150 76 339 -10 357 -163 5 -51 17 -65 53 -65 30 0 52 27 47
56 -2 10 5 18 17 20 80 12 35 188 -70 276 -81 68 -207 98 -307 72z"/>
<path d="M1083 1639 c-21 -8 -28 -27 -25 -69 0 -9 -9 -16 -25 -17 -37 -2 -45
-20 -39 -95 16 -221 173 -420 403 -513 155 -63 345 -64 513 -4 123 45 216 117
313 243 113 146 153 235 164 362 5 66 4 72 -17 87 -17 12 -28 13 -46 5 -13 -6
-25 -14 -25 -17 -1 -3 -3 -17 -4 -30 -2 -24 -20 -41 -42 -41 -13 0 -19 -18
-27 -87 -13 -106 -50 -187 -108 -237 -137 -119 -327 -170 -504 -137 -255 49
-435 232 -460 470 -3 25 -7 51 -9 58 -6 20 -38 31 -62 22z m136 -444 c42 -47
95 -87 169 -127 76 -43 76 -50 -1 -13 -72 34 -164 110 -205 170 -19 28 -24 39
-12 25 12 -14 34 -38 49 -55z m276 -175 c13 -6 15 -9 5 -9 -8 0 -22 4 -30 9
-18 12 -2 12 25 0z"/>
</g>
</svg>
